# xmcd
#
# Track frame offsets: 
#        150
#        16865
#        30431
#        55128
#        69853
#        84266
#        103924
#        116651
#        129548
#        155792
#        172584
#
# Disc length: 2804 seconds
#
# Revision: 0
# Processed by: cddbd v1.5.1PL0 Copyright (c) Steve Scherf et al.
# Submitted via: ExactAudioCopy v0.95a5
#
DISCID=7e0af20b
DTITLE=Strikers Blues Band - Ride On
DYEAR=2004
DGENRE=Blues
TTITLE0=Ride On
TTITLE1=Hey Mr Iceman
TTITLE2=Oh Lord !
TTITLE3=Au Fond Des Bayous
TTITLE4=Pink Cadillac
TTITLE5=Coeur Solitaire en Perdition
TTITLE6=Bedtime Story Blues
TTITLE7=Let Me tell You
TTITLE8=Y'a des Jours, Y'a des Nuits
TTITLE9=Waisting Time
TTITLE10=Larmes dans le Ciel
EXTD=
EXTT0=
EXTT1=
EXTT2=
EXTT3=
EXTT4=
EXTT5=
EXTT6=
EXTT7=
EXTT8=
EXTT9=
EXTT10=
PLAYORDER=
